<svg width="437" height="435" viewBox="0 0 437 435" fill="none" xmlns="http://www.w3.org/2000/svg">
<g opacity="0.1">
<path d="M141.462 410.797L155.516 394.208L160.014 396.273L157.364 411.463L167.321 399.628L171.805 401.653L168.18 423.064L164.091 421.186L167.522 404.87L156.866 417.869L152.613 415.916L155.707 399.544L145.579 412.687L141.462 410.797Z" fill="black"/>
<path d="M61.5255 348.047L65.8143 345.019L61.7483 339.26L64.4686 337.339L68.5347 343.098L73.0686 339.897L68.4835 333.403L71.2774 331.43L78.2848 341.356L61.1539 353.45L54.1465 343.525L56.9403 341.552L61.5255 348.047Z" fill="black"/>
<path d="M28.8491 268.067C28.8416 266.866 29.2372 265.802 30.0359 264.874C30.8346 263.946 31.8427 263.364 33.0603 263.13C34.16 262.917 35.1851 263.005 36.1356 263.392C37.0627 263.763 37.8604 264.414 38.5286 265.344C39.1969 266.274 39.6655 267.437 39.9344 268.831L41.6446 277.697L21.0836 281.663L19.4473 273.18C19.1783 271.785 19.1731 270.544 19.4316 269.455C19.6863 268.347 20.167 267.46 20.8737 266.794C21.5766 266.108 22.4386 265.667 23.4598 265.47C24.6577 265.239 25.7218 265.37 26.6519 265.863C27.5783 266.336 28.3107 267.07 28.8491 268.067ZM28.7718 275.903L28.0446 272.132C27.8552 271.151 27.4933 270.436 26.959 269.989C26.4051 269.546 25.7157 269.404 24.8909 269.563C24.0661 269.722 23.479 270.111 23.1296 270.728C22.7802 271.345 22.7002 272.145 22.8896 273.127L23.6168 276.897L28.7718 275.903ZM36.69 270.068C36.4968 269.066 36.1115 268.336 35.5342 267.877C34.953 267.398 34.2304 267.242 33.3663 267.409C32.4826 267.58 31.8521 268.007 31.4748 268.691C31.0778 269.378 30.9759 270.223 31.1691 271.224L31.9532 275.289L37.4911 274.221L36.69 270.068Z" fill="black"/>
<path d="M31.6813 131.867C32.7911 129.967 34.1359 128.518 35.7159 127.518C37.3059 126.501 39.0187 126.008 40.8542 126.038C42.6825 126.041 44.5033 126.572 46.3165 127.631C48.1298 128.69 49.4864 130.016 50.3866 131.607C51.2795 133.171 51.6735 134.895 51.5686 136.78C51.4738 138.647 50.8715 140.53 49.7617 142.43L46.0691 148.75L27.9887 138.187L31.6813 131.867ZM46.6035 140.759C47.7133 138.859 48.0528 137.088 47.6221 135.447C47.1913 133.805 46.0347 132.435 44.1524 131.335C42.2701 130.235 40.4996 129.896 38.8409 130.317C37.1649 130.727 35.772 131.882 34.6622 133.782L33.1639 136.346L45.1053 143.323L46.6035 140.759Z" fill="black"/>
<path d="M92.9875 60.4003L95.9493 64.7351L101.77 60.7578L103.649 63.5073L97.8279 67.4846L100.959 72.067L107.523 67.582L109.452 70.4058L99.4206 77.2603L87.5903 59.946L97.6222 53.0915L99.5516 55.9153L92.9875 60.4003Z" fill="black"/>
<path d="M179.726 17.3882L175.409 39.2705L170.372 40.0667L159.516 20.5826L163.961 19.88L172.25 35.4265L175.31 18.0861L179.726 17.3882Z" fill="black"/>
<path d="M251.693 37.7314C250.95 37.5714 250.383 37.2139 249.991 36.6589C249.623 36.0887 249.512 35.4614 249.659 34.777C249.807 34.0927 250.164 33.5762 250.73 33.2276C251.319 32.8636 251.986 32.7616 252.729 32.9216C253.452 33.0774 253.998 33.4404 254.366 34.0107C254.739 34.5614 254.851 35.179 254.704 35.8633C254.556 36.5476 254.198 37.0739 253.627 37.4421C253.061 37.7907 252.417 37.8871 251.693 37.7314Z" fill="black"/>
<path d="M356.91 65.7146C358.41 67.3242 359.411 69.0294 359.913 70.8302C360.429 72.6456 360.409 74.4279 359.852 76.1771C359.323 77.9272 358.29 79.5181 356.754 80.9496C355.217 82.3812 353.558 83.2989 351.774 83.7029C350.02 84.1079 348.255 83.9889 346.48 83.346C344.72 82.7177 343.089 81.5988 341.59 79.9891L336.6 74.6335L351.92 60.359L356.91 65.7146ZM344.099 77.4458C345.599 79.0554 347.197 79.8902 348.893 79.9501C350.589 80.01 352.234 79.297 353.829 77.8109C355.424 76.3248 356.259 74.727 356.334 73.0173C356.423 71.2941 355.718 69.6276 354.218 68.018L352.193 65.845L342.075 75.2728L344.099 77.4458Z" fill="black"/>
<path d="M398.669 159.915L396.589 151.838L392.38 151.497L391.28 147.226L413.466 149.288L414.686 154.023L396.257 166.546L395.149 162.246L398.669 159.915ZM401.638 157.972L409.366 152.853L400.127 152.104L401.638 157.972Z" fill="black"/>
<path d="M398.847 297.629C398.119 298.583 397.156 299.183 395.956 299.43C394.757 299.676 393.603 299.52 392.496 298.961C391.496 298.457 390.739 297.761 390.223 296.874C389.716 296.013 389.483 295.011 389.522 293.866C389.562 292.721 389.902 291.515 390.542 290.247L394.608 282.185L413.304 291.616L409.413 299.33C408.774 300.598 408.019 301.583 407.149 302.287C406.27 303.008 405.347 303.416 404.381 303.511C403.405 303.624 402.453 303.446 401.525 302.978C400.436 302.428 399.673 301.674 399.239 300.716C398.795 299.775 398.664 298.746 398.847 297.629ZM403.699 291.474L401.969 294.903C401.519 295.796 401.369 296.582 401.518 297.262C401.686 297.952 402.144 298.486 402.894 298.864C403.644 299.242 404.346 299.294 405 299.019C405.654 298.744 406.206 298.16 406.657 297.267L408.386 293.839L403.699 291.474ZM393.865 291.252C393.406 292.162 393.264 292.976 393.441 293.692C393.608 294.426 394.085 294.991 394.87 295.387C395.674 295.793 396.434 295.84 397.151 295.53C397.885 295.228 398.482 294.622 398.941 293.711L400.806 290.015L395.77 287.475L393.865 291.252Z" fill="black"/>
<path d="M362.178 367.755L347.997 352.347L351.088 349.503L365.268 364.91L362.178 367.755Z" fill="black"/>
<path d="M292.176 389.857L296.111 388.39L310.04 398.536L305.023 385.07L308.959 383.604L316.28 403.254L312.344 404.72L298.405 394.547L303.433 408.041L299.497 409.507L292.176 389.857Z" fill="black"/>
</g>
</svg>
