<svg width="165" height="163" viewBox="0 0 165 163" fill="none" xmlns="http://www.w3.org/2000/svg">
<path d="M39.1714 139.497L53.2252 122.908L57.7237 124.974L55.074 140.163L65.0304 128.328L69.5141 130.354L65.8898 151.765L61.8003 149.887L65.2315 133.57L54.5754 146.57L50.3223 144.617L53.416 128.245L43.2883 141.387L39.1714 139.497Z" fill="black"/>
<path d="M28.7172 121.862L33.0061 118.834L28.94 113.075L31.6604 111.154L35.7264 116.913L40.2604 113.712L35.6753 107.218L38.4691 105.245L45.4766 115.171L28.3457 127.265L21.3382 117.34L24.1321 115.367L28.7172 121.862Z" fill="black"/>
<path d="M22.8309 89.4198C22.8234 88.2195 23.219 87.1553 24.0177 86.2272C24.8164 85.2992 25.8245 84.7177 27.0421 84.4829C28.1418 84.2708 29.1669 84.3582 30.1174 84.7452C31.0445 85.1163 31.8422 85.767 32.5104 86.6973C33.1787 87.6276 33.6473 88.7899 33.9163 90.1842L35.6265 99.0507L15.0654 103.017L13.4291 94.5329C13.1602 93.1386 13.1549 91.8972 13.4134 90.8085C13.6681 89.7002 14.1488 88.8131 14.8555 88.1472C15.5584 87.4617 16.4204 87.0204 17.4416 86.8235C18.6395 86.5924 19.7036 86.7233 20.6337 87.216C21.5601 87.6891 22.2925 88.4237 22.8309 89.4198ZM22.7536 97.2563L22.0264 93.4858C21.837 92.5039 21.4751 91.7895 20.9408 91.3426C20.3869 90.8994 19.6975 90.7574 18.8727 90.9165C18.0479 91.0756 17.4608 91.4638 17.1114 92.0812C16.762 92.6985 16.682 93.4981 16.8714 94.48L17.5986 98.2506L22.7536 97.2563ZM30.6718 91.421C30.4786 90.4195 30.0933 89.6892 29.516 89.2303C28.9348 88.7517 28.2122 88.5957 27.3481 88.7624C26.4644 88.9328 25.8339 89.36 25.4566 90.0438C25.0596 90.7314 24.9577 91.576 25.1509 92.5776L25.935 96.6426L31.4729 95.5745L30.6718 91.421Z" fill="black"/>
<path d="M21.3545 48.2275C22.4643 46.3279 23.8092 44.8784 25.3891 43.8789C26.9791 42.8622 28.6919 42.3688 30.5274 42.3989C32.3558 42.4015 34.1765 42.9326 35.9898 43.9919C37.803 45.0513 39.1597 46.3766 40.0598 47.968C40.9527 49.5321 41.3468 51.2563 41.2418 53.1407C41.147 55.0078 40.5447 56.8912 39.4349 58.7908L35.7423 65.1111L17.6619 54.5479L21.3545 48.2275ZM36.2767 57.1194C37.3865 55.2198 37.7261 53.4493 37.2953 51.8078C36.8645 50.1664 35.7079 48.7958 33.8257 47.6961C31.9434 46.5963 30.1728 46.2568 28.5141 46.6775C26.8381 47.0881 25.4452 48.2432 24.3354 50.1428L22.8372 52.7072L34.7785 59.6838L36.2767 57.1194Z" fill="black"/>
<path d="M43.5787 28.4285L46.5405 32.7632L52.3615 28.7859L54.2401 31.5354L48.4191 35.5127L51.5502 40.0952L58.1142 35.6102L60.0436 38.4339L50.0118 45.2884L38.1815 27.9741L48.2133 21.1196L50.1427 23.9434L43.5787 28.4285Z" fill="black"/>
<path d="M81.5139 11.931L77.1974 33.8132L72.1599 34.6095L61.3048 15.1253L65.7496 14.4227L74.0385 29.9693L77.0987 12.6288L81.5139 11.931Z" fill="black"/>
<path d="M92.4976 34.9589C91.7546 34.7989 91.1871 34.4414 90.7952 33.8865C90.427 33.3162 90.3166 32.6889 90.4639 32.0046C90.6113 31.3203 90.968 30.8038 91.5341 30.4551C92.1239 30.0912 92.7903 29.9892 93.5333 30.1491C94.2567 30.3049 94.8025 30.668 95.1707 31.2382C95.5431 31.789 95.6556 32.4065 95.5083 33.0908C95.3609 33.7751 95.0021 34.3014 94.4318 34.6696C93.8657 35.0182 93.221 35.1147 92.4976 34.9589Z" fill="black"/>
<path d="M132.441 34.0911C133.941 35.7007 134.942 37.4059 135.444 39.2067C135.96 41.0221 135.94 42.8044 135.383 44.5536C134.854 46.3038 133.821 47.8947 132.285 49.3262C130.748 50.7577 129.089 51.6755 127.305 52.0795C125.551 52.4844 123.786 52.3654 122.011 51.7225C120.251 51.0943 118.62 49.9753 117.121 48.3657L112.131 43.0101L127.451 28.7355L132.441 34.0911ZM119.63 45.8223C121.13 47.4319 122.728 48.2667 124.424 48.3267C126.12 48.3866 127.765 47.6735 129.36 46.1875C130.955 44.7014 131.79 43.1035 131.865 41.3939C131.954 39.6706 131.249 38.0042 129.749 36.3946L127.724 34.2216L117.606 43.6493L119.63 45.8223Z" fill="black"/>
<path d="M134.401 73.5586L132.321 65.4822L128.113 65.1411L127.013 60.8705L149.198 62.9318L150.418 67.6672L131.989 80.1899L130.882 75.8902L134.401 73.5586ZM137.371 71.6165L145.098 66.4972L135.859 65.7481L137.371 71.6165Z" fill="black"/>
<path d="M133.354 113.223C132.626 114.177 131.663 114.778 130.463 115.024C129.264 115.27 128.111 115.114 127.003 114.555C126.003 114.051 125.246 113.355 124.73 112.468C124.223 111.607 123.99 110.605 124.03 109.46C124.069 108.315 124.409 107.109 125.049 105.841L129.116 97.7789L147.812 107.21L143.92 114.924C143.281 116.192 142.526 117.177 141.656 117.881C140.777 118.602 139.854 119.01 138.888 119.105C137.912 119.218 136.96 119.04 136.032 118.572C134.943 118.023 134.181 117.269 133.746 116.31C133.302 115.369 133.171 114.34 133.354 113.223ZM138.206 107.068L136.476 110.497C136.026 111.39 135.876 112.176 136.025 112.857C136.193 113.546 136.652 114.08 137.402 114.458C138.152 114.836 138.853 114.888 139.507 114.613C140.161 114.338 140.713 113.754 141.164 112.861L142.893 109.433L138.206 107.068ZM128.372 106.846C127.913 107.756 127.771 108.57 127.948 109.286C128.115 110.02 128.592 110.585 129.377 110.982C130.181 111.387 130.941 111.434 131.658 111.124C132.392 110.822 132.989 110.216 133.449 109.306L135.313 105.609L130.277 103.069L128.372 106.846Z" fill="black"/>
<path d="M127.948 135.134L113.767 119.726L116.857 116.882L131.038 132.29L127.948 135.134Z" fill="black"/>
<path d="M90.7655 131.36L94.7012 129.894L108.63 140.039L103.613 126.574L107.548 125.107L114.87 144.758L110.934 146.224L96.9951 136.05L102.023 149.544L98.0869 151.011L90.7655 131.36Z" fill="black"/>
</svg>
